<?xml version="1.0" encoding="utf-8"?><svg width="198" height="198" viewBox="0 0 198 198" xmlns="http://www.w3.org/2000/svg" xmlns:xlink="http://www.w3.org/1999/xlink"><svg width="66" height="66" viewBox="-1 -1 66 66" id="amazon" xmlns="http://www.w3.org/2000/svg"><path d="M31.305 21.48c-1.24-.44-10.948-2.635-16.787 2.414s-5.693 11.05-5.255 15.22 2.263 10.902 11.605 12.22c9.342 1.317 10.51-1.317 12.92-1.537s4.16 1.683 4.524 2.122c.365.437.584.803 2.628-.295s8.32-6.44 8.83-7.024.293-.66.22-1.9c-.073-1.245-.365-1.025-2.117-2.708-1.752-1.683-1.68-3.146-2.263-5.78-.584-2.635-.438-16.245-1.095-20.49C43.858 9.48 42.107 1.212 32.91.188S19.262 2.528 16.123 6.04s-4.306 8.707-4.306 8.707l.803 2.707c1.387.66 10.437 2.488 10.437 2.488s.51-4.317 2.117-5.415c1.606-1.098 4.67-1.902 7.445.585C35.39 17.6 33.93 22.65 33.93 22.65s-1.388-.733-2.628-1.17zm1.46-8.927c-3.87-2.195-7.227-1.976-9.416-.293s-2.265 4.61-2.85 4.537-6.933-2.34-7.444-2.707c0 0 2.846-6.585 6.13-9.22S25.83.48 33.422 1.797s9.343 7.683 9.562 10.098c.22 2.415.876 11.342.876 11.342s-1.752-3.22-1.97-3.146c-.22.075-.366.953-.366.953l2.263 3.512.073 2.05-2.263-2.708s-.584.95-.22 1.17c.366.22 2.483 3 2.556 3.294s.22 3.513.22 3.513L41.668 28.8s-.365.804-.22 1.243c.147.44 2.775 3 2.775 3.22s1.314 4.61.876 4.463c-.44-.146-2.776-3.66-2.776-3.66s-.584.88-.365 1.1c.22.22 3.283 4.17 3.575 4.462.292.293 2.774 2.634 2.774 2.634s-.366 1.317-.804 1.17c-.438-.145-2.92-3.804-3.138-3.658s-.585.66-.074 1.098c.51.44 2.482 2.927 2.41 3.146s-1.388.805-1.388.805-3.503-4.17-3.722-4.098c-.22.073-.803.44-.584.66s3.357 3.804 3.357 3.804l-1.023.876s-2.555-3.22-2.774-3.22c-.22 0-.803.366-.657.585.146.22 2.555 3.22 2.555 3.22s-.802.95-1.167.733c-.364-.22-2.773-3.146-2.773-3.146s-.73.293-.44.585c.293.293 2.848 3.073 2.63 3.073-.22 0-1.315.44-1.46.22-.147-.22-3.577-3.44-4.015-3.44s-1.24.88-3.722 1.684c-2.482.804-9.926 3.292-16.057.804s-4.963-12.66-4.306-16.17 5.547-8.928 12.554-9.294 10.073 1.977 10.803 1.977c.73 0 .803.585.876-.66.072-1.245 1.24-8.27-2.63-10.464h.005zm-15.328.073c-.292-.073 1.387-3.366 1.68-3.512s-.44-.732-.804-.732c-.365 0-3.12 4.442-2.847 4.683.584.512 3.065 1.463 3.65 1.463s.218-.66.218-.878-1.605-.95-1.897-1.024zm-1.022 31.17c-1.314-.95-1.898-4.023-1.898-4.023-1.387.146-1.168 1.244-1.168 1.537s.655 2.78 1.604 3.732c.95.95 4.306 1.902 4.744 1.756.437-.146.51-.95.364-1.39s-2.335-.66-3.65-1.61l.003-.002zm20.145-7.17c.51 0 .876-5.415.73-5.78-.146-.367-1.022.22-1.022.22-.22.804-.438 5.267-.22 5.56.22.293 0 0 .512 0zm-18.247-4.683c-.365 2.415-1.24 7.976 4.817 9.146 6.058 1.17 9.78-1.83 10.73-4.685s1.044-7.664.583-7.83c-11.386-4.097-15.765.952-16.13 3.368zm12.408 6.732c-3.063 1.902-7.88 1.317-9.632-.366-1.752-1.685-.382-6.09 3.065-6.734 3.138-.585 5.182-1.024 8.685 1.098 0 0 .95 4.097-2.116 6zm12.045 17.56c-3.138.88-9.707 1.245-18.247.586-8.54-.657-18.685-6.437-18.685-6.437-2.555 1.537.95 5.122 8.102 9.66s15.108 4.243 22.407 3.584 12.336-5.634 12.482-6.366c.146-.73.073-2.487-.365-2.706-.44-.22-2.556.805-5.694 1.683v-.002zm-2.117 3.367c-4.67 1.17-8.32 2.854-19.123.44-10.802-2.416-13.65-6.66-13.21-7.1.154-.154 9.268 5.782 21.238 5.562s15.327-1.39 15.327-1.39.438 1.317-4.232 2.488zm17.955-8.27c-.657-.877-8.977-3.22-9.707-3.292-.73-.073-1.24.878-1.533 2.122-.292 1.244.657 1.683 1.095 1.976.438.293 2.75 2.325 2.628 3.366-.146 1.244-1.68 5.195-1.898 5.634s.292 1.244.657 1.537 1.46.878 4.014-.585c2.554-1.463 3.21-3.073 4.232-5.05 1.023-1.975 1.17-4.83.512-5.707zm-3.358 6.294c-1.387 1.683-2.92 2.634-3.138 2.634s1.314-4.683 1.168-5.56c-.146-.88-3.284-4.1-3.94-4.245 0 0-.293-.95 1.167-.66 1.46.294 6.497 2.196 6.643 2.928.145.732-.512 3.22-1.9 4.903z" fill="#232021"/></svg><svg width="66" height="66" viewBox="-1 -1 66 66" id="facebook" x="66" xmlns="http://www.w3.org/2000/svg"><path d="M50.752 3.09C50.427.33 43.932 0 40.23 0s-7.6.395-12.6 3.09c-5.002 2.698-6.756 7.434-7.406 10.328s.13 11.313.13 11.51c0 .198-3.897.198-5.39.264-1.495.066-1.82.724-1.95 1.118-.13.395.65 11.38.65 11.38l.455 3.946c.842.46 5 .263 5.714.395.714.134.974 1.12 1.04 3.883.064 2.763.454 13.353.52 15.523.064 2.17 1.038 2.17 3.377 2.236s11.367.33 11.886.33c.52 0 1.04-.658 1.04-2.697 0-2.04.65-19.207.713-19.6.064-.396 1.43 0 2.597 0s6.755-.396 7.73-.527c.973-.132 1.363-10.393 1.363-13.747s-2.142-3.486-3.506-3.552c-1.364-.066-7.86.197-8.25-.066s1.235-5.393 3.38-6.445c2.142-1.052 7.404-.46 8.053-.33.65.133 1.104-1.38 1.17-2.564.065-1.183.13-8.616-.195-11.38V3.09zm-4.644 22.004c.195 0 1.137 1.052 1.396 1.48s-.13 1.184-.227 1.25-1.17-1.776-1.332-2.04c-.162-.263.033-.69.163-.69zm3.345-12.4c-.585.067-6.365-.525-9.613.66-3.248 1.183-5.066 4.538-5.26 6.38-.196 1.84-.26 5.26.26 5.26s5.13.1 6.884.165c1.754.064 2.696-.035 2.858.195.162.23 2.63 3.75 2.598 3.98s-.26 1.413-.39 1.25-2.436-4.21-2.598-4.046c-.162.163-.585.79-.292 1.216.292.428 2.76 4.177 2.728 4.34-.032.165-.325 1.053-.487.823-.16-.23-2.953-5.066-3.116-5-.162.066-.617.69-.39 1.085.227.395 3.248 4.637 3.28 4.867.032.23-.032 1.973-.227 1.908s-2.923-5.228-3.378-5.228c-.456 0-.618.888-.358 1.217.26.327 3.476 5.096 3.476 5.194s-.747.56-1.007.362c-.26-.197-2.89-5.262-3.15-5.262-.26 0-.974.33-.747.69.227.363 2.76 4.474 2.63 4.507-.13.034-.616.198-.973-.196-.358-.395-2.404-4.012-2.664-3.947s-.747.625-.487.954 2.53 3.19 2.27 3.257c-.26.066-1.56.033-1.655-.1-.097-.13-1.396-2.696-1.69-2.696-.29 0-.68.46-.52.757.163.296 1.17 1.908 1.073 1.908-.098 0-3.02-.164-3.12.197-.096.362.163 2.795 0 2.697-.16-.1-1.46-2.73-1.655-2.73s-.552.755-.422 1.084c.13.33 2.144 2.795 2.21 3.06.065.262.065 2.202-.065 1.94-.13-.264-2.078-3.717-2.208-3.652-.13.066-.455.954-.39 1.15s2.663 3.882 2.728 4.145c.065.263.097 2.763-.032 2.565-.13-.197-2.923-5.525-3.15-5.492-.227.034-.422 1.152-.292 1.514s3.314 5.262 3.346 5.525c.032.26.065 1.577-.065 1.48s-3.54-6.415-3.7-6.316c-.163.1-.293 1.02-.196 1.414s3.897 6.313 3.93 6.445c.032.132-.032 2.763-.162 2.63-.13-.13-3.962-6.905-4.19-6.873-.226.033-.39 1.217-.226 1.513.162.296 4.482 6.48 4.514 6.808.033.33.163 1.94 0 1.876-.16-.066-4.708-7.73-4.87-7.696-.162.033-.39 1.052-.325 1.283.065.23 5.13 7.926 5.13 8.19s-.03.492-.324.492c-.29 0-.615.033-.907-.263s-4.482-7.268-4.774-7.202-.358 1.184-.26 1.546c.096.362 4.546 5.953 4.383 6.02-.162.065-6.04-.363-6.495-.363-.455 0-.844-.132-.844-.132s.195-.262-.357-.854-1.364-1.546-1.72-1.316c-.358.23-.228.625 0 .855.226.23 1.136.92.973 1.052-.163.13-2.502-.034-2.6-.264-.096-.23-.13-9.67-.194-12.958-.065-3.29-.227-7.992-.942-8.485-.714-.493-6.04-.625-6.333-.92-.23-.234-.907-10.722-.52-10.788.39-.066 5.393.132 6.237-.395.844-.526 1.04-1.447.91-2.63-.13-1.185-.91-9.407.584-12.564s4.483-6.183 9.094-8.025C35.814.92 41.53 1.05 45.494 1.578c3.96.526 4.35 1.25 4.416 3.157.063 1.91.128 7.895-.457 7.96zM22.725 26.18c-.227.032-.195.986-.195 1.347 0 .362-2.11.132-2.63.1-.52-.034-1.026.106-.943.525.032.164 0 .56.195.658.195.1 4.222.132 4.612.132s.292-2.04.227-2.5c-.062-.46-1.037-.296-1.265-.262zm6.04-19.274c-1.038.526-2.987 2.105-4.188 4.11-1.202 2.007-1.526 3.52-1.56 4.836-.03 1.316.19 2.184.423 2.302.26.132.617-.033.91-.033.29 0-.033-3.78 1.688-6.773 1.72-2.993 4.19-3.716 4.612-3.75.422-.032.357-.657.26-1.117-.098-.462-1.105-.1-2.145.426zm7.762 6.38c-.26-.065-1.396.297-1.98.89-.586.59-1.69 2.498-1.885 3.123-.195.623-.104 1.51.227 1.642.323.132.68 0 .907-.164.227-.165.227-1.48.747-2.6.52-1.117 2.11-1.84 2.273-1.972.164-.132-.03-.855-.29-.92zM44.094 2.83c-.578-.11-.844 1.02-.552 1.15.292.133 2.273.43 2.825.494.552.066.91.033 1.04.395s-.033 3.65.194 3.814c.23.164 1.204.493 1.204-.362s.13-4.374-.26-4.703-3.767-.658-4.45-.79zM25.518 55.712c-.393.106-.52.362-.162 1.052.357.69 2.5 3.09 2.825 3.09.327 0 .814-.394.49-.82-.326-.428-2.664-3.453-3.15-3.322h-.002zm2.24-1.085c-.13-.1-.713.56-.584.79 0 0 2.696 3.55 3.053 4.044s.714.594 1.072.397c.355-.197-.13-.79-.39-1.316s-3.02-3.813-3.15-3.912h-.002z"/></svg><svg width="66" height="66" viewBox="-1 -1 66 66" id="github" y="66" xmlns="http://www.w3.org/2000/svg"><path d="M63.827 26.474c-.62-4.577-2.548-8.12-5.003-12.605-2.456-4.487-6.91-7.684-10.053-9.915C45.63 1.725 41.268.69 37.068.275s-9.404-.44-12.9.484c-4.865 1.286-7.986 2.62-11.29 5.633s-5.762 6.072-7.85 9.5C2.935 19.32 1.35 24.563 1.1 27.118c-.252 2.553-.046 6.05.85 10.03.894 3.978 2.914 7.68 5.806 12.144 2.892 4.462 6.954 7.29 11.66 10.144C24.12 62.288 33.99 64.45 37.73 63.92c3.743-.527 8.884-1.815 14.163-6 5.28-4.187 8.217-11.11 9.823-15.435 1.607-4.325 2.732-11.433 2.112-16.01zM56.39 46.117c-.16 0-2.18-3.703-2.294-3.98-.088-.21.826-1.908.918-1.93.092-.024 2.226 3.886 2.203 3.978-.023.092-.666 1.932-.827 1.932zM48.634 21.62c-.092-.252-.138-.482-.115-.574s.642-1.656.46-3.013c-.186-1.357-.78-3.52-.736-3.588.046-.07 2.456 1.863 3.833 4.968s2.548 5.474 2.984 9.683.23 7.314-1.26 10.144-2.57 4.44-3.398 5.29c-.825.85-2.547 1.656-2.753 1.656s-.94-3.726-1.516-4.9c-.574-1.172-1.607-2.713-1.584-2.966 0 0 1.72-1.54 2.318-2.46.597-.92 2.548-4.164 2.456-7.752-.092-3.59-.597-6.234-.69-6.487zm9.456 21.323c-.185.16-2.656-4.102-2.526-4.232.207-.205.895-2.413 1.033-2.505s2.41 4.048 2.41 4.324-.734 2.253-.918 2.414zm3.12-11.317c-.297-.253-2.202-4.53-2.455-4.623-.252-.092-.826.897-.69 1.265s2.663 4.53 2.732 4.922c.07.39-.184 2.392-.252 2.093-.07-.3-1.974-4.002-2.203-4.002-.23 0-.85.807-.826.945.023.138 2.502 4.738 2.502 5.037 0 .3-.344 2.186-.55 1.84-.208-.344-2.618-4.346-2.663-4.46-.046-.116.046-5.613-.23-8.074-.274-2.46-1.192-7.337-4.612-11.317-3.42-3.98-7.046-6.716-12.28-7.96s-8.4-1.17-12.324-.987c-3.927.184-9.596 2.438-13.475 8.05-3.88 5.612-4.453 7.176-5.325 11.225-.87 4.048.093 10.052.804 12.65.712 2.6 2.57 6.372 4.682 8.327 2.112 1.955 4.75 3.174 6.817 3.933s5.187 1.22 5.44 1.127c.252-.092.138-3.266 0-3.634s-.252-.55-1.102-.505c-.847.046-2.385.023-3.395-.437s-1.836-1.38-2.41-2.415-1.4-2.3-1.836-2.783c-.437-.484-1.355-1.312-1.24-1.473.115-.16 1.836-.322 3.03.046 1.194.368 3.213 1.725 4.085 2.277.872.552 1.997 1.357 2.387 1.357s1.195-1.84 1.54-2.277c.343-.437 1.147-1.91.802-2.23-.344-.323-2.456-.415-3.512-.69-1.056-.277-2.96-1.312-4.315-3.083-1.354-1.77-1.974-4.416-1.95-6.28.022-1.862 1.835-5.45 2.202-6.163.366-.713.85-1.38.62-1.633-.23-.25-1.217-1.63-1.447-2.597-.228-.966.598-3.335.758-3.427s1.263.207 2.09.322c.826.115 2.66.62 3.35 1.08.69.46.94.69 1.33.69s3.42-.69 4.455-.92c1.033-.23 4.085-.597 5.233-.367s2.87 1.266 3.167 1.08c.298-.182.987-1.493 2.456-1.86 1.47-.37 3.97-.53 4.27-.277.298.253.734 2.898.505 4.255-.23 1.357-.62 2.14-.39 2.507.23.368 1.33 2.852.757 5.06-.575 2.208-1.4 5.36-4.132 7.452-2.73 2.093-3.626 2.438-3.948 2.645-.32.208 0 .852.298 1.105s2.318 1.61 3.305 4.646c.987 3.037 1.148 4.83 1.148 5.452s.713.874 1.263.76c.55-.116 1.193-.507 2.09-1.197s3.442-2.507 3.625-2.415c.185.092 1.768 3.473 2.158 3.588.39.116.666-.16.71-.39.047-.23-1.238-2.69-1.583-3.36-.344-.665-.597-1.056-.505-1.263s.872-1.15 1.033-.99c.16.162 1.86 2.853 2.157 3.313.298.46.528.552.207 1.104-.32.553-1.446 2.025-1.997 2.508-.55.483-.757 1.08-1.08.828-.32-.253-1.927-3.15-2.18-3.197-.25-.047-.94.574-.87.78s2.18 3.336 2.18 3.474-1.057 1.495-2.158 2.346c-1.103.85-1.814 1.38-2.02 1.08-.208-.298-2.365-5.312-2.71-5.38s-1.055.183-.94.597 2.754 5.06 2.73 5.29c-.022.23-.87.782-1.124.552-.252-.23-3.03-5.958-3.374-6.004s-.94.115-.94.667 3.58 5.635 3.42 5.91c-.162.277-.827.898-1.08.645-.252-.253-3.535-6.808-3.764-6.854-.23-.046-1.056.184-1.056.345 0 .16 3.718 7.06 3.695 7.22-.024.163-1.447.853-1.768.69-.32-.16-3.58-7.45-3.833-7.61-.253-.16-1.263.53-1.194.62.07.092 4.017 6.946 3.81 7.29-.207.346-1.125.46-1.285.3-.16-.16-3.856-7.222-4.11-7.29-.25-.07-1.03.32-.962.62.07.3 3.925 6.74 3.81 6.785-.115.046-1.102.092-1.262-.023s-3.49-5.335-3.902-5.45c-.413-.115-.895.506-.895.644s3.19 4.738 3.03 4.784-1.217-.046-1.447-.184c-.23-.138-2.433-4.048-2.73-4.14-.3-.092-1.01.437-.92.667.093.23 2.25 3.175 1.975 3.175s-1.01.023-1.33-.16c-.322-.185-1.837-3.267-2.113-3.36-.275-.09-.826.323-.85.438-.022.115 1.172 2.277.92 2.3-.253.023-1.08-.023-1.286-.184-.208-.162-1.608-2.508-1.814-2.577s-.872.3-.803.506.734 1.22.505 1.24c-.23.025-4.958-1.286-7.505-3.034-2.548-1.748-7.3-7.13-8.768-8.763-1.47-1.633-3.512-6.51-4.223-9.155-.71-2.645-.894-6.578-.87-8.67.022-2.094 1.652-7.59 2.57-9.455.918-1.863 4.453-6.923 6.84-9.338s6.243-5.267 10.305-6.486 7.482-1.473 9.364-1.45c4.476.055 9.57.713 12.69 1.77 3.123 1.06 8.953 5.66 10.4 7.315s3.19 4.623 4.222 6.785c1.034 2.16 1.79 4.024 1.585 3.863s-1.492-2.415-1.744-2.392c-.25.025-.802.416-.71.715.092.3 2.433 3.933 2.662 4.393.23.46.46.99.482 1.08.023.093.32 3.244.23 3.083-.092-.16-2.318-4.21-2.617-4.323-.298-.115-.528.345-.46.46.07.115 3.1 5.29 3.1 5.543-.003.253.112 2.37-.186 2.116h-.004zm-41.634-9.844c.482.46-.62 1.196-1.4 2.92-.78 1.726-1.492 5.13-1.08 7.177.414 2.045 1.355 4.46 3.558 6.37s5.187 2.023 5.508 2.184c.32.16-.55 1.31-.734 1.54s-.16.185-.597-.045c-.434-.23-2.936-2.37-5.552-2.92-2.617-.554-4.223.23-4.797.734-.573.506.07 1.426.804 1.978s1.584 1.587 2.662 3.565c1.08 1.978 1.744 2.415 3.49 3.013 1.743.6 3.12.622 3.396.645s.208.828.024 1.127c-.184.3-.895-.46-1.95-.76-1.057-.298-3.03-.482-4.132-1.172-1.102-.69-4.66-4.853-5.325-6.67-.667-1.817-2.067-5.91-2.09-7.958-.023-2.047-.184-5.543.62-8.165.803-2.622 2.57-6.97 5.256-9.96s6.564-5.29 12.302-5.91c5.738-.622 10.787 1.103 13.932 2.184 3.144 1.083 3.88 1.75 3.88 1.957 0 0-.942.184-3.42.345-2.48.162-4.086 1.473-4.178 1.634-.092.16-2.617-.414-5.256-.62-2.64-.208-6.29.965-6.426.965s-.505-.023-1.492-.414c-.987-.39-5.692-1.426-6.243-1.38-.55.046-1.767 1.54-2.02 3.772-.252 2.232.78 3.405 1.263 3.865h-.002zM38.26 2.277c-4.11-.575-6.732-.306-6.91-.138-.412.39-.274 1.15.23 1.24.505.092 2.96-.3 6.197.023 3.236.322 5.623 1.54 6.128 1.564.505.023.803-.805.528-1.104-.276-.3-2.066-1.012-6.174-1.587zM7.824 17.664c-3.26 3.38-3.856 7.82-4.13 9.34s.71 2.16 1.17 1.954c.46-.207-.023-1.495 1.033-4.876s2.41-4.6 2.846-5.45c.435-.853-.687-1.208-.92-.968zm15.01 13.088c-.367-.966-.092-2.23.138-3.312.23-1.08-.804-1.035-1.056-.782-.666.667-.918 2.783-.666 4.094.253 1.31 1.424 3.243 2.044 3.542.62.3 1.216-.092 1.08-.736-.14-.644-1.172-1.84-1.54-2.806zm-3.74 10.604c-1.01.667-.024 1.334.39 1.334s.825-.16.642-.805c-.184-.644-.793-.688-1.033-.53zm2.088 1.817c-.734.414-.07 1.357.413 1.38a.853.853 0 0 0 .895-.828c.024-.483-.987-.733-1.307-.552zm2.87 1.288c-1.034.23-.69 1.244-.185 1.313s.94-.115 1.08-.644c.136-.53-.246-.813-.895-.67zm18.43-26.472c.23.023.917.138 1.238.138.322 0 .3 1.886.46 2.46.16.576 1.01.6 1.33.277.322-.322-.114-3.404-.343-3.703-.23-.3-2.446.12-2.73.183-.208.045-.185.62.045.645zm6.104 36.433c.23.047.826-.23.872-.574.045-.345-1.722-4.53-1.883-4.623-.16-.092-1.216.262-1.216.46 0 .39 1.997 4.692 2.226 4.738z"/></svg><svg width="66" height="66" viewBox="-1 -1 66 66" id="instagram" x="66" y="66" xmlns="http://www.w3.org/2000/svg"><path d="M61.46 10.85C60.528 3.59 57.96.688 49.666.397 41.373.107 22.92-.3 11.766.34.615.977 1.783 7.89 1.783 9.98c0 0-.76 25.492-.76 30.138S.732 47.493 2.25 52.72s4.32 10.627 10.92 10.975c6.598.348 34.277.523 40.934-.174s7.358-6.04 8.467-11.44c1.11-5.4-.173-33.97-1.11-41.23zm-1.517 18.234c.117.348.058 1.86.058 1.86s-3.034-3.02-3.443-2.614c-.41.406-.234 1.22-.234 1.22s3.62 2.38 3.62 2.67-.116 1.626-.116 1.626-2.86-2.38-3.036-2.323c-.174.058-.41.813-.35 1.045.06.232 3.563 2.265 3.563 2.613v3.196s-2.978-2.962-3.212-3.02c-.233-.058-.35 1.22-.35 1.22s3.27 2.845 3.388 3.193.117 2.264.117 2.264-3.037-2.903-3.212-2.903-.35 1.395-.35 1.395 3.153 2.67 3.33 3.078c.174.407.116 2.555.116 2.555s-3.096-2.497-3.27-2.44c-.176.06-.118 1.51.057 1.685.175.174 3.27 2.265 3.33 2.555.057.29-.118 2.555-.118 2.555s-2.804-2.497-3.037-2.497c-.234 0-.35 1.045-.35 1.045s3.387 2.904 3.387 3.08-.643 1.625-.643 1.625-3.095-3.078-3.33-3.136c-.233-.06-.758.522-.758.696s3.21 3.136 3.035 3.426c-.175.29-.35.93-.584.93s-3.035-2.67-3.21-2.67c-.176 0-.82.986-.82.986s2.92 2.613 2.746 2.73c-.175.116-1.46.697-1.46.697s-2.57-2.265-2.803-2.265-.76.755-.76.755l2.162 2.09s-1.46.466-1.693.408c-.234-.057-2.277-1.74-2.686-1.915-.41-.174-1.518.348-1.518.348s2.1 1.742 1.81 1.916c-.293.173-12.848.58-20.322.463-7.475-.116-17.752-.348-20.38-1.626s-5.43-4.53-5.723-11.15C2.6 39.826 3.3 13.58 3.3 13.58c-.058-2.033-.117-7.434 1.81-9.234s5.84-2.613 13.08-2.67c7.24-.06 25.81.29 31.3.463s8.526 2.03 9.168 5.05S60 22.87 59.826 22.812c-.175-.058-2.92-2.207-3.153-2.207-.234 0-.584 1.22-.35 1.336.234.117 3.387 2.382 3.562 2.788.175.407.175 2.613.175 2.613s-3.037-3.077-3.27-2.96c-.234.115-.234 1.567-.234 1.567s3.27 2.79 3.387 3.137v-.003zm-5.197-10.336c.058-4.297-.41-8.13-3.036-10.163-2.628-2.032-21.49-1.393-27.33-1.277s-11.51.166-13.255 1.684c-.467.406-1.46 1.16-1.635 3.426-.175 2.265-1.226 31.3-.76 35.83s2.278 5.285 6.25 5.4c3.97.117 28.788.64 32.875.408 4.088-.232 5.14-1.742 6.19-4.588s.642-26.423.7-30.72zM52.41 48.77c-.7 1.743-1.577 3.137-5.022 3.427-3.445.29-23.942 0-28.905-.174-4.964-.174-6.248-1.162-6.248-1.162s.175-22.355.35-28.162-.234-10.453.584-10.917c.912-.52 6.83-.986 18.276-1.102 11.445-.116 18.22.232 19.212.64.992.406 2.335 2.032 2.335 9.407 0 7.373.116 26.304-.585 28.047l.002-.002zm-6.13-36.7c-5.373.813-4.03 5.98-2.162 7.2 1.87 1.22 6.423 1.395 6.89-2.264.468-3.66-1.776-5.383-4.73-4.936h.002zm2.977 3.542c-.292 1.974-2.102 2.207-3.27 2.032-1.168-.174-3.68-3.368.584-4.47 1.033-.268 2.98.464 2.687 2.438zm-20.555.232C9.665 19.154 13.986 37.97 17.724 43.02c3.737 5.053 14.716 4.82 20.73 2.266 6.015-2.555 10.102-8.304 7.358-18.93-2.745-10.628-12.643-11.288-17.11-10.512zM40.848 41.57c-5.606 4.007-13.84 4.355-17.752 2.44s-7.767-6.215-6.89-13.3c.875-7.084 5.488-12.484 12.612-13.24 4.01-.424 11.562 0 14.132 6.33s3.504 13.763-2.102 17.77zM28.702 21.36c-9.05 2.266-9.285 7.724-8.526 13.53.76 5.808 10.92 7.086 16.292 4.763s7.183-6.04 5.723-11.556-8.2-8.06-13.488-6.737zm4.263 17.54c-5.256.58-8.993-.465-10.278-3.485s.467-8.304 7.007-9.93c4.015-.998 9.518.523 10.86 4.646 1.345 4.124-2.334 8.19-7.59 8.77z"/></svg><svg width="66" height="66" viewBox="-1 -1 66 66" id="linked-in" x="132" xmlns="http://www.w3.org/2000/svg"><path d="M4.843 19.24c1.944 1.244 5.646 1.29 8.052 1.106 2.406-.184 6.155-3.135 6.386-8.3.233-5.164-3.47-7.885-3.47-7.885C11.37.38 5.26 2.55 3.965 3.33 2.668 4.116-.802 7.25.17 11.54s2.352 6.212 4.673 7.7zM3.12 5.81c.953-1.338 2.984-2.733 6.905-2.145s5.032 2.282 6.074 3.908.97 3.078.97 3.078-2.534-4.355-2.915-4.286c-.382.07-.937.795-.66 1.245.277.45 3.16 4.287 3.055 4.564-.103.277-.207 1.072-.346.865s-2.43-4.29-2.742-4.22c-.312.07-.73.553-.52 1.107.207.553 2.706 3.908 2.602 4.046s-.555.76-.694.553c-.14-.207-2.048-3.977-2.43-3.873-.38.104-.693.52-.45 1.14.243.623 2.29 3.32 2.152 3.494-.14.173-.52.553-.694.45-.174-.104-2.152-3.285-2.464-3.25-.312.034-.937.69-.59 1.106.347.415 2.117 2.663 1.91 2.767-.21.103-1.528.345-1.736.276-.208-.07-1.18-2.248-1.492-2.248s-.972.484-.868.9c.104.414 1.32 1.45.972 1.59-.347.138-3.922-.38-5.518-1.522S.308 9.752 3.12 5.81zm2.394 8.023c.278-.277.243-.38.243-.726s-.937-1.004-1.11-1.557c-.174-.553-.035-2.18.763-3.01s1.006-1.382.347-1.66c-.66-.275-2.082.59-2.395 2.422s0 3.424.555 4.115 1.31.7 1.597.416zM8.95 26.628c-.694-.208-4.442-.208-4.894-.138s-.59 5.187-.52 5.74c.068.554 0 1.42.45 1.453 0 0 .764.104.972.035.208-.07.347-5.153.45-5.533.105-.38 3.82-.07 3.992-.242.175-.174.244-1.108-.45-1.315zm8.99-3.147c-1.39-.517-8.573-.69-11.038-.724s-5.264-.097-5.622.484c-.278.45-.14 10.408-.278 16.944S.447 56.68.655 57.06s4.2 3.216 4.512 3.458c.312.242 1.11.346 3.228.31 2.117-.034 9.024.312 9.857.105s1.77-.52 2.048-1.107c.278-.588.347-3.597.486-10.41s1.145-15.872.972-19.47-2.43-5.946-3.82-6.465h.002zm.068 8.544c-.208-.07-2.152-3.285-2.5-2.905-.346.38-.45.725-.034 1.35.416.62 2.395 3.63 2.43 3.975.034.346.103 2.04-.036 2.04s-2.5-3.77-2.776-3.63-.555.76-.486.967 3.09 4.15 3.158 4.842c.07.692 0 1.695-.14 1.522-.138-.173-2.36-4.565-2.74-4.357-.383.206-.73 1.002-.417 1.52.312.52 2.985 4.288 3.054 4.496.07.207 0 1.867-.172 1.764-.174-.105-2.464-4.358-2.81-4.324-.348.035-.695.9-.556 1.383.14.482 3.402 4.736 3.333 5.22-.07.484-.035 2.317-.208 2.213-.174-.104-2.88-5.014-3.124-5.084-.242-.07-.728.864-.59 1.244.14.38 3.576 6.017 3.61 6.5.035.485 0 3.148-.243 3.01s-3.332-6.225-3.852-6.26c-.52-.034-.59 1.038-.486 1.35.103.31 4.06 6.432 4.164 6.778s0 .692-.382.865-.555.138-.59.035c-.035-.104-3.054-5.395-3.54-5.568s-.833.553-.798.726c.035.174 3.68 4.946 3.332 5.257s-1.32.346-1.562.104c-.243-.24-3.262-5.462-3.61-5.462-.346 0-1.04.9-.797 1.14.242.243 3.192 4.428 2.914 4.428s-1.25.31-1.492.104-2.568-4.116-2.95-4.082c-.382.035-.73.484-.694.588s2.36 3.25 2.082 3.32-1.25.07-1.423-.035C6.9 56.96 5.41 54.09 5.13 54.02s-.867.52-.867.692c0 .173 1.84 2.282 1.423 2.386-.416.104-2.534-.104-2.672-.173-.14-.07-.868-.83-.902-1.487-.035-.657.208-30.432.52-31.02.105-.196 6.18.07 9.337.31 3.156.243 5.24-.172 5.69.38.45.554.59 3.32.416 3.148-.174-.173-1.388-2.56-1.805-2.455-.415.104-.73.934-.52 1.383.208.45 2.22 3.32 2.325 3.666.106.344.14 1.243-.068 1.174zM63.75 35.24c-.31-4.324-2.706-7.644-6.073-9.788s-9.058-2.732-12.91-1.937-7.914 4.323-8.053 4.288-.035-2.974-.14-3.7-1.422-.622-4.72-.657-7.75.02-7.808.277c-.174.76.14 15.908.174 21.372s-.243 11.447 0 12.138c.243.692 2.464 3.25 3.297 3.25s8.885-.137 10.238-.31c1.354-.173 1.388-1.452 1.388-3.216s-.035-15.078.555-19.262 3.922-5.74 6.63-5.05c2.706.693 3.157 3.7 3.713 7.367.557 3.666-.484 14.075-.52 15.216s.14 4.46.765 4.703c.625.244 10.1.037 11.488-.033s1.874-.242 2.082-1.176c.21-.933.21-19.157-.103-23.48h-.002zm-5.09-2.468c.117.184 3.263 5.21 3.263 5.625s-.046 1.43-.162 1.314c-.114-.113-2.173-3.963-2.566-3.963s-.902.807-.74 1.13 3.124 4.795 3.147 5.14c.024.347.07 2.445-.045 2.26-.116-.184-2.707-4.772-2.962-4.772s-.532.784-.532 1.153c0 .37 3.31 5.44 3.333 5.602.023.16 0 3.342-.278 3.296-.278-.046-1.25-1.66-2.105-3.48-.857-1.822-.973-2.353-1.39-2.26-.415.092-.277 1.475-.184 1.82.093.347 3.285 5.672 3.332 5.95.046.276.093 2.65-.185 2.443-.278-.21-3.1-6.296-3.447-6.34-.347-.048-.787.966-.694 1.15.093.185 3.54 5.95 3.633 6.78.093.83 0 1.29-.255 1.29-.254 0-.37-.16-.486-.39-.116-.233-3.24-5.535-3.4-5.558-.163-.023-.65.968-.464 1.268.185.3 3.008 4.474 2.846 4.52s-1.342.046-1.48-.046c-.14-.092-2.523-3.712-2.685-3.712-.16 0-.785.784-.67.99.117.208 2.014 2.606 1.783 2.675-.23.07-1.134.092-1.273-.046s-1.528-2.65-1.875-2.626c-.347.023-.648.738-.578.876s1.41 1.913 1.04 2.005c-.37.092-1.526.16-1.526.023s.604-4.565.65-8.346c.046-3.78-.23-7.816-.65-10.398-.414-2.582-.692-5.05-2.52-6.063-1.83-1.012-4.975-1.52-7.404-.02-2.43 1.5-3.31 3.134-3.68 3.665-.37.53-.415 1.153-.415 1.153s-1.272-2.26-1.757-1.637c-.486.623-.532 1.015-.347 1.177.185.16 1.55 1.314 1.596 1.798.047.484.163 2.86.047 2.86s-1.736-3.183-2.106-2.998c-.37.184-.463 1.383-.416 1.522.046.137 2.082 3.02 2.105 3.39.024.367 0 2.073-.092 2.004-.092-.07-2.29-3.988-2.5-3.896-.206.092-.646.83-.6 1.107.046.277 3.24 5.026 3.26 5.256.025.23 0 2.86-.206 2.86s-2.775-5.21-2.96-5.21c-.186 0-.81.99-.74 1.29.068.3 3.562 5.626 3.655 5.995.092.37.115 3.158 0 3.158s-3.68-7.285-3.91-7.285-.88.945-.834 1.037c.046.092 3.84 6.64 3.84 6.94s-.092.368-.092.368-.278.092-.347-.023c-.07-.116-3.077-5.004-3.355-5.073-.278-.07-.995.715-.833.945s3.123 4.035 3.007 4.196c-.116.16-1.458.092-1.596 0-.14-.092-2.313-3.965-2.567-3.92-.255.047-.88.946-.834 1.06.045.116 2.13 2.93 2.105 2.998-.023.07-1.18.138-1.296.023-.117-.117-1.92-2.953-2.36-3s-.718.923-.58 1.038c.14.114 1.69 2.143 1.41 2.143-.276 0-2.312.14-2.36-.37-.044-.505.395-10.373.37-13.646-.02-3.274-.345-17.29-.183-18.052.034-.16 6.502-.023 7.59-.046 1.086-.023 1.78.023 1.873.16.093.14-.046 5.396.324 5.58.37.184 1.366-.807 1.667-1.06.3-.254 1.76-1.568 5.068-3.112 3.31-1.545 7.82-1.867 10.11-1.36s4.767 1.222 6.41 3.412c1.643 2.19 2.8 4.058 3.1 5.233.3 1.176.3 2.213.14 2.167-.163-.046-2.083-4.772-2.615-4.657-.536.116-.675 1.337-.56 1.522h-.003zm-26.098-6.294c-.37-.23-4.373-.16-4.65-.16-.28 0-.44.483-.394.668 0 0-.093.553.093.807s3.426.138 3.773.138.393 1.708.44 2.054c.046.346 1.18.092 1.342.07.162-.024.162-.554.162-1.315s-.394-2.03-.765-2.262zm13.304 1.96c-.347.207-.44 1.014.162 1.268s3.24.83 4.627 1.937c1.388 1.107 1.435 4.288 1.458 4.61.023.324.95.577 1.365.116.416-.463.23-2.72-1.273-5.328-1.504-2.605-6.08-2.76-6.34-2.604z"/></svg><svg width="66" height="66" viewBox="-1 -1 66 66" id="treehouse" x="132" y="66" xmlns="http://www.w3.org/2000/svg"><path d="M58.787 18.364c-.174-.95-4.53-4.32-5.228-4.494-.7-.173-1.004-.52-2.268-.043-1.264.475-9.542 7.518-10.544 10.11-1.003 2.594 1.437 5.273 3.267 6.353 1.83 1.08 3.486 2.593 3.573 5.315.087 2.722-2.483 4.105-4.575 3.327-2.09-.778-1.786-3.154-1.786-5.272 0-2.117-1.308-4.71-4.88-3.802s-4.053 5.315-4.27 7.605c-.22 2.29.26 4.19-1.134 6.352-1.394 2.16-4.096 1.167-4.618-1.21-.523-2.376 2.832-4.97 5.315-9.03 2.483-4.063.35-6.267-2.222-6.18-2.57.086-5.227 2.938-6.404 4.105-1.176 1.167-2.788 1.253-3.355.69-.566-.56-.35-1.425 1.133-2.376 1.48-.95 6.535-2.68 7.8-3.673 1.263-.992 1.698-2.072 1.045-3.152-.655-1.08-4.358-.82-5.578-.735-1.22.087-1.7-.994-.654-1.426 1.046-.432 2.31.26 5.01.605 2.702.347 4.402.735 8.54-.777 4.14-1.512 7.103-8.512 7.408-10.457.305-1.944-8.19-9.722-9.498-10.11s-2.57.56-5.49 2.375c-2.92 1.816-13.986 9.162-16.34 10.674-2.352 1.512-6.52 3.794-7.32 5.012-1.132 1.727-.653 5.832-.39 8.51.26 2.68.914 12.1.958 15.6s.915 5.877 3.747 8.21c2.835 2.33 18.173 13.434 21.44 13.52 3.267.088 4.356-.647 9.933-3.8 5.577-3.155 16.077-9.723 16.992-15.125.915-5.4.567-25.75.392-26.7zm-2.178 3.198c-.176-.087-3.575-2.593-3.75-2.377s-.35.82-.086.994c.26.17 3.747 2.504 3.747 2.72 0 .216.175 2.117.045 1.944s-3.92-2.895-4.008-2.765c-.087.13-.305.733-.087.906.22.173 3.922 2.55 4.01 2.852.086.3-.088 1.77-.088 1.77s-3.486-2.765-3.747-2.765c-.26 0-.305 1.124-.13 1.167.173.043 3.833 2.506 3.833 2.68 0 .172-.13 1.295-.13 1.295s-3.312-2.636-3.487-2.593c-.172.043-.085 1.08-.085 1.08s3.442 2.29 3.486 2.593c.045.303.175 1.772 0 1.815s-2.92-2.03-3.31-1.858c-.392.173-.35.994-.087 1.167.26.173 3.268 1.772 3.355 2.117.087.346.174 2.16.044 2.16s-3.267-2.85-3.485-2.635c-.22.216-.132 1.167-.132 1.167s3.486 2.68 3.573 2.894c.087.216.044 2.03.044 2.03s-3.616-2.678-3.834-2.635c-.218.042-.087 1.166-.087 1.166s3.878 2.636 3.878 2.895 0 1.945-.174 1.945-3.268-3.154-3.79-2.98c-.524.172-.785.388-.437.777.35.39 4.052 2.938 4.008 3.284s-1.22 1.6-1.394 1.556c-.173-.043-3.31-3.457-3.66-3.457s-.96.52-.74.735c.218.217 3.834 3.414 3.703 3.5l-1.09.735s-4.05-3.457-4.182-3.457c-.13 0-.61.82-.61.82s4.314 3.155 4.097 3.285c-.218.13-1.48 1.34-1.57 1.167-.086-.173-3.615-3.37-3.833-3.37s-.61.13-.566.475c.044.346 3.965 3.327 3.703 3.543-.26.216-1.437.95-1.437.95s-3.442-3.456-3.834-3.413-.698.778-.698.778 3.88 2.852 3.66 3.154c-.217.302-1.22.69-1.22.69s-3.18-3.196-3.31-3.196-.697.175-.61.39c.087.217 3.442 3.155 3.224 3.415-.218.26-1.09 1.167-1.438 1.037-.35-.13-2.92-3.586-3.18-3.586-.262 0-1.134.432-.872.735.26.3 3.224 3.413 3.094 3.543-.13.13-.784.994-1.09.69-.304-.302-3.485-3.63-3.66-3.672-.173-.042-1 .347-.827.606.175.26 3.88 3.413 3.66 3.586-.217.174-1.785 1.21-1.785 1.21s-3.18-4.104-3.486-4.104-1.003.216-.96.562c.044.346 3.703 4.148 3.573 4.278s-.61.346-.87.346-4.1-3.804-4.405-3.804c-.304 0-.653.346-.696.52-.044.172 4.53 3.63 4.14 3.888s-1.482.69-1.482.69-4.488-4.32-4.836-4.32c-.35 0-1.307.734-1.046 1.037.26.302 4.967 3.76 4.662 4.02-.305.258-1.176.95-1.57.777-.39-.173-20.956-14.69-21.958-15.944-1.002-1.253-1.133-4.407-1.57-8.9-.434-4.498-1.392-16.424-.74-17.418C8.36 17.884 33.17 1.9 34.302 2.117c1.134.216 6.93 6.265 7.016 6.827.087.562-2.745 7.432-6.187 8.728-3.442 1.296-7.145-.648-10.326-.26-3.18.39-4.444 1.643-4.706 3.5-.26 1.86 1.743 2.94 3.224 3.112 1.482.173 3.27-.13 3.617.302.35.432.435.994-2.05 1.556s-6.623.95-8.104 2.98c-1.48 2.032-.828 4.063 2.004 5.316 2.83 1.253 5.663-1.253 6.447-1.944.784-.69 3.355-2.98 4.096-2.506.74.475.74 3.37-2.353 6.784s-4.357 7.52-.697 9.42c3.66 1.9 7.494-.475 7.93-3.414.436-2.938-.566-5.53 1.002-8.167 1.57-2.634 3.137-3.152 3.486-1.813s-1.13 5.012 2.093 7.346c3.224 2.333 6.492 1.642 8.017-1.123 1.524-2.767 1.48-5.23.217-6.526-1.264-1.296-5.272-3.932-5.926-5.704-.652-1.772-.564-2.55 1.266-4.407 1.83-1.858 7.276-6.438 7.973-6.265.696.173 4.095 2.722 4.27 3.025.174.302.174 2.765 0 2.68zm-33.377-8.426c.392.043 7.276-4.494 7.45-4.667.174-.175-.305-.693-.697-.996s-7.613 4.37-7.712 4.667c-.086.26.567.95.96.996z"/></svg><svg width="66" height="66" viewBox="-1 -1 66 66" id="twitter" y="132" xmlns="http://www.w3.org/2000/svg"><path d="M62.468 17.868s.86-1.473.957-2.328c.096-.855.096-1.853-.335-2.233s-2.153.238-3.54.665c-1.387.428-4.162.855-4.162.855s-1.722-5.083-4.497-7.08-6.457-2.042-9.566-1.33c-3.11.714-6.937 2.71-8.707 4.8s-3.3 6.27-3.827 7.933-1.58 4.56-2.776 4.798c-1.196.238-3.445-.618-5.358-1.805-1.914-1.188-6.89-5.226-9.377-7.506S5.25 8.414 4.1 8.652c-1.147.238-2.487 4.37-2.487 7.316s2.63 5.796 2.63 5.796c-1.052 3.848-.43 6.556.575 8.55s3.205 3.327 3.205 3.327c-.287 1.33-.144 2.948.335 4.373.478 1.425 2.966 3.23 2.966 3.23s-1.483 1.19-3.827 1.854c-2.344.665-6.793-.048-7.272.048-.478.095-.048 6.033-.048 6.89 0 .854.622 1.52 1.387 2.09s6.937 3.657 15.596 5.89c8.66 2.233 15.453.285 20.62-1.948 5.167-2.233 10.717-9.074 14.305-14.585 3.588-5.51 5.98-13.444 5.98-13.444s1.34-.713 3.253-2.138c1.914-1.425 2.63-3.848 2.68-5.32.05-1.475-1.53-2.71-1.53-2.71v-.002zm-4.306 3.183c.574 0 3.014-1.376 3.3-1.14.288.24-.717 2.09-2.487 3.138-1.77 1.045-3.11 1.568-3.445 1.473-.335-.094-1.555-2.47-1.77-2.434-.215.036-.79.5-.646.82s1.543 2.173 1.4 2.46c-.145.284-.216.427-.432.248S52.54 22.62 52.18 22.55c-.36-.072-.86.712-.646 1.068.215.356 1.973 2.637 1.938 2.993s-.43 1.997-.574 1.748c-.144-.25-2.332-4.276-2.548-4.24-.215.036-.718.962-.61 1.247.108.285 2.655 3.99 2.655 4.31 0 .322-.753 1.925-1.005 1.64-.25-.285-2.476-5.024-2.69-5.024-.216 0-.826.785-.79 1 .036.213 2.87 4.952 2.942 5.31.072.354-.61 2.385-.86 2.243-.252-.143-2.55-5.88-2.836-5.915-.287-.036-.718.82-.61 1.176.108.356 2.8 5.452 2.835 5.88.038.427-.43 1.175-.572 1.068-.144-.106-3.05-7.268-3.3-7.232-.252.036-.683.748-.432 1.568.25.82 3.193 6.164 3.23 6.592.035.428-.72 1.425-.826 1.247-.11-.178-3.194-6.984-3.48-6.912-.288.07-.683 1.14-.432 1.568.25.43 3.41 5.95 3.41 6.13s-.826 1.46-1.042 1.354c-.215-.107-2.87-6.414-3.158-6.378-.287.035-.825.676-.502 1.39s3.122 5.45 3.014 5.77-.86 1.39-1.005 1.14c-.144-.25-2.978-6.7-3.3-6.7s-1.113.715-.826 1.285c.285.57 3.48 6.2 3.335 6.342-.144.143-1.256 1.603-1.435 1.497-.178-.106-3.228-6.626-3.55-6.52-.324.108-.79.607-.54 1.07.252.463 3.41 5.986 3.338 6.164s-.86.89-1.076.64c-.215-.248-3.158-6.092-3.48-6.092-.324 0-1.006.926-.79 1.283.215.355 3.66 5.664 3.516 5.914s-1.22 1.176-1.363.998c-.144-.178-2.8-5.558-3.337-5.523-.538.035-.933.854-.682 1.14.25.284 2.942 4.81 2.942 4.81s-1.292.783-1.507.533c-.213-.25-2.402-5.203-2.617-5.203s-1.148.57-.754 1.14c.394.57 2.582 4.347 2.367 4.525s-.897.5-1.112.25-2.44-5.203-2.655-5.203-1.077.355-.862.712 2.512 4.988 2.404 5.06c-.108.07-1.543.5-1.722.32-.18-.177-2.117-4.31-2.44-4.31s-.646.5-.574.748c.072.25 2.117 3.813 2.01 3.884-.11.07-1.508.285-1.652.178-.144-.107-1.973-4.383-2.26-4.454s-.934.5-.79.89c.144.393 1.794 3.564 1.615 3.635-.18.07-1.4.143-1.58-.107s-1.65-3.706-1.974-3.777c-.323-.07-.897.107-.682.64s1.902 3.564 1.65 3.564-1.614 0-1.757-.107c-.144-.107-1.615-3.634-1.866-3.706-.25-.07-1.075-.142-.932.32.143.465 1.72 3.173 1.434 3.173s-1.758-.285-2.01-.534c-.25-.25-1.578-3.493-1.865-3.528-.288-.035-.898.286-.826.714s1.365 2.744 1.04 2.672c-.32-.07-1.792-.32-1.83-.5-.034-.177-1.47-3.17-1.72-3.313s-1.112.036-.897.428c.215.393 1.148 2.388 1.005 2.388s-3.515-.997-6.314-2.422-5.31-3.634-4.988-3.706 3.947.213 6.423-.714c2.476-.926 4.952-1.888 5.095-2.174.144-.285-.287-.926-.395-.962-.107-.036-3.12-.962-3.767-3.136-.646-2.173-.144-4.525-.538-4.81-.395-.285-2.404-1.14-3.41-4.24s.11-7.304-.107-7.59c-.215-.284-.562-.866-.91-.77-.36.098-1.53-2.33-1.578-4.61s.957-5.32 1.196-5.32c.24 0 6.65 6.176 10.047 9.027S21.8 25 24.145 25.38c2.344.38 3.3.475 4.4-1.758 1.1-2.234 2.297-7.697 3.972-10.215 1.674-2.518 5.12-5.368 9.568-6.08s7.798.522 9.568 2.992 1.866 5.7 2.296 5.985c.43.285 2.342.19 4.64-.618 2.295-.808 3.11-.998 3.252-.998.144 0-.526 1.472-2.01 2.707-1.482 1.235-2.535 2.09-2.535 2.66s.29.996.864.996l.002-.002zM6.11 16.884c-.682-.534-.395-1.817-.215-2.744.18-.927-1.292-.714-1.543.32-.25 1.033.036 2.46.86 3.17.826.714 1.6.67 1.83.5.288-.213-.25-.712-.932-1.247zm20.13 10.155c-.538-.07-1.866.64-3.265-.07-1.4-.714-2.763-2.388-3.373-2.174-.428.15-.86.713.18 1.675s2.977 1.78 4.556 1.78 2.44-1.14 1.902-1.212zm9.83-12.577c-.358-.106-1.865.89-2.582 2.14-.718 1.246-1.794 3.633-.97 4.097.554.31.826-.07 1.257-1.425.43-1.353 1.256-2.92 1.722-3.49.467-.572.933-1.214.574-1.32z"/></svg></svg>